<?xml version="1.0" encoding="UTF-8"?>
<svg width="600" height="400" viewBox="0 0 600 400" fill="none" xmlns="http://www.w3.org/2000/svg">
  <g clip-path="url(#clip0_1_2)">
    <!-- Background shape -->
    <path d="M550 100C550 155.228 505.228 200 450 200C394.772 200 350 155.228 350 100C350 44.7715 394.772 0 450 0C505.228 0 550 44.7715 550 100Z" fill="#0077B5" fill-opacity="0.1"/>
    <path d="M250 300C250 355.228 205.228 400 150 400C94.7715 400 50 355.228 50 300C50 244.772 94.7715 200 150 200C205.228 200 250 244.772 250 300Z" fill="#0077B5" fill-opacity="0.1"/>
    
    <!-- People connected -->
    <circle cx="150" cy="150" r="15" fill="#0077B5"/>
    <circle cx="450" cy="150" r="15" fill="#0A66C2"/>
    <circle cx="300" cy="300" r="15" fill="#0077B5"/>
    
    <!-- Connection lines -->
    <line x1="160" y1="160" x2="290" y2="290" stroke="#0077B5" stroke-width="2"/>
    <line x1="310" y1="290" x2="440" y2="160" stroke="#0A66C2" stroke-width="2"/>
    <line x1="160" y1="150" x2="440" y2="150" stroke="#0077B5" stroke-width="2"/>
    
    <!-- Chat bubbles -->
    <rect x="325" y="100" width="80" height="40" rx="10" fill="white" stroke="#0A66C2" stroke-width="2"/>
    <rect x="195" y="100" width="80" height="40" rx="10" fill="white" stroke="#0077B5" stroke-width="2"/>
    <rect x="265" y="250" width="80" height="40" rx="10" fill="white" stroke="#0077B5" stroke-width="2"/>
    
    <!-- Document icons around the people -->
    <rect x="125" y="180" width="30" height="40" rx="5" fill="white" stroke="#0077B5" stroke-width="2"/>
    <line x1="135" y1="190" x2="145" y2="190" stroke="#0077B5" stroke-width="2"/>
    <line x1="135" y1="200" x2="145" y2="200" stroke="#0077B5" stroke-width="2"/>
    <line x1="135" y1="210" x2="140" y2="210" stroke="#0077B5" stroke-width="2"/>
    
    <rect x="445" y="180" width="30" height="40" rx="5" fill="white" stroke="#0A66C2" stroke-width="2"/>
    <line x1="455" y1="190" x2="465" y2="190" stroke="#0A66C2" stroke-width="2"/>
    <line x1="455" y1="200" x2="465" y2="200" stroke="#0A66C2" stroke-width="2"/>
    <line x1="455" y1="210" x2="460" y2="210" stroke="#0A66C2" stroke-width="2"/>
    
    <rect x="285" y="330" width="30" height="40" rx="5" fill="white" stroke="#0077B5" stroke-width="2"/>
    <line x1="295" y1="340" x2="305" y2="340" stroke="#0077B5" stroke-width="2"/>
    <line x1="295" y1="350" x2="305" y2="350" stroke="#0077B5" stroke-width="2"/>
    <line x1="295" y1="360" x2="300" y2="360" stroke="#0077B5" stroke-width="2"/>
    
    <!-- Central educational elements -->
    <rect x="250" y="150" width="100" height="80" rx="10" fill="white" stroke="#0A66C2" stroke-width="2"/>
    <line x1="265" y1="170" x2="335" y2="170" stroke="#0A66C2" stroke-width="2"/>
    <line x1="265" y1="190" x2="335" y2="190" stroke="#0A66C2" stroke-width="2"/>
    <line x1="265" y1="210" x2="315" y2="210" stroke="#0A66C2" stroke-width="2"/>
    
    <!-- Graduation caps -->
    <path d="M150 120L160 110H140L150 120Z" fill="#0077B5"/>
    <rect x="145" y="105" width="10" height="5" fill="#0077B5"/>
    
    <path d="M450 120L460 110H440L450 120Z" fill="#0A66C2"/>
    <rect x="445" y="105" width="10" height="5" fill="#0A66C2"/>
    
    <path d="M300 270L310 260H290L300 270Z" fill="#0077B5"/>
    <rect x="295" y="255" width="10" height="5" fill="#0077B5"/>
  </g>
  <defs>
    <clipPath id="clip0_1_2">
      <rect width="600" height="400" fill="white"/>
    </clipPath>
  </defs>
</svg>
